<?xml version="1.0" encoding="UTF-8" standalone="no"?>
<!DOCTYPE svg PUBLIC "-//W3C//DTD SVG 1.1//EN" "http://www.w3.org/Graphics/SVG/1.1/DTD/svg11.dtd">
<svg width="100%" height="100%" viewBox="0 0 1000 1000" version="1.1" xmlns="http://www.w3.org/2000/svg"
     xml:space="preserve"
     style="fill-rule:evenodd;clip-rule:evenodd;stroke-linejoin:round;stroke-miterlimit:2;">
    <g transform="matrix(1,0,0,1,-6.1962,-7.52)">
        <g transform="matrix(1,0,0,1,20,16)">
            <path d="M136.558,488.307C135.54,488.849 134.874,489.253 133.26,490.232C136.314,491.374 138.5,492.33 140.767,493.018C163.619,499.945 181.967,512.948 194.812,533.255C203.85,547.543 208.905,563.331 210.892,580.001C212.128,590.367 213.068,600.871 212.857,611.288C212.303,638.671 209.966,665.909 205.372,692.979C202.518,709.796 200.851,726.826 199.057,743.804C198.012,753.696 197.098,763.687 197.303,773.61C197.738,794.785 199.597,815.838 210.558,834.754C221.211,853.139 237.885,863.344 258.271,866.722C270.802,868.798 283.744,868.397 296.504,869.063C298.784,869.182 301.075,869.08 303.693,869.08L303.693,929.828C301.755,929.917 299.98,930.103 298.21,930.064C282.91,929.729 267.521,930.274 252.328,928.804C216.26,925.316 182.978,914.619 157.027,887.511C139.692,869.402 130.139,847.314 125.122,823.124C121.463,805.484 119.989,787.538 121.22,769.583C122.546,750.242 124.591,730.933 126.901,711.68C129.941,686.344 133.799,661.106 136.792,635.766C138.134,624.408 138.929,612.892 138.741,601.468C138.408,581.339 135.897,561.635 122.206,545.272C111.316,532.256 96.977,525.367 80.804,522.142C70.932,520.173 60.824,519.392 50.174,517.993C50.11,517.03 49.914,515.438 49.912,513.846C49.889,498.349 50.03,482.849 49.809,467.355C49.751,463.253 50.865,461.872 55.09,461.973C68.816,462.303 82.18,460.124 95.17,455.518C119.766,446.796 133.004,428.913 136.936,403.695C139.585,386.705 138.798,369.613 137.142,352.581C135.585,336.576 133.917,320.577 131.948,304.618C129.959,288.507 127.411,272.465 125.355,256.361C124.012,245.837 122.745,235.279 122.105,224.696C121.372,212.585 120.669,200.399 121.197,188.299C122.324,162.448 127.61,137.558 141.527,115.192C156.745,90.734 178.631,74.68 205.456,65.04C223.857,58.428 242.855,54.507 262.422,54.006C276.017,53.659 289.627,53.939 303.635,53.939L303.635,114.033C301.621,114.033 299.543,114.06 297.466,114.029C282.323,113.798 267.228,113.997 252.399,117.728C223.689,124.953 207.123,143.815 201.187,172.169C198.921,182.99 197.018,194.239 197.441,205.197C198.272,226.707 200.506,248.186 202.806,269.608C204.752,287.726 208.232,305.689 209.897,323.824C211.625,342.658 212.942,361.629 212.709,380.518C212.415,404.343 207.806,427.458 194.412,447.922C180.624,468.988 160.684,481.335 136.558,488.307Z" style="fill:rgb(196,196,196);fill-rule:nonzero;"/>
        </g>
        <g transform="matrix(1,0,0,1,20,16)">
            <path d="M778.6,532.621C793.195,509.81 814.508,497.268 839.757,489.633C834.699,487.853 829.584,486.221 824.594,484.269C789.375,470.49 769.937,443.986 763.019,407.51C758.609,384.253 759.358,360.846 761.917,337.511C764.589,313.135 768.296,288.872 770.915,264.491C772.845,246.524 774.002,228.46 775.048,210.413C776.093,192.376 774.11,174.665 767.403,157.699C758.44,135.022 741.315,121.934 717.946,117.232C707.283,115.086 696.213,114.867 685.307,114.065C680.185,113.688 675.013,114 669.433,114L669.433,53.092C681.061,53.092 692.537,52.588 703.952,53.21C721.187,54.148 738.31,56.252 755.017,60.977C791.266,71.229 820.073,90.995 837.146,125.521C845.491,142.395 850.149,160.428 850.911,179.207C851.522,194.289 851.849,209.478 850.764,224.508C849.43,242.999 846.543,261.381 844.247,279.8C842.217,296.081 839.757,312.314 838.073,328.629C836.387,344.96 834.56,361.356 834.363,377.742C834.105,399.154 835.933,420.421 850.912,437.85C859.223,447.521 869.88,453.828 881.948,456.765C895.069,459.959 908.605,461.449 922.585,463.786L922.585,518.516C916.595,519.005 910.511,519.323 904.473,520.028C885.951,522.192 868.602,527.404 854.837,540.814C842.31,553.016 836.539,568.599 835.186,585.527C833.263,609.59 835.454,633.571 838.837,657.445C842.3,681.891 846.201,706.299 848.725,730.846C850.727,750.315 852.038,769.989 851.681,789.535C851.171,817.403 845.404,844.38 830.55,868.542C814.099,895.3 789.79,911.764 760.167,921.118C730.646,930.44 700.332,930.761 669.428,929.745L669.428,870.274C670.987,870.189 672.737,870.146 674.477,869.992C689.154,868.689 704.112,868.736 718.445,865.765C748.622,859.51 765.502,839.103 771.794,809.762C774.146,798.798 775.506,787.432 775.639,776.23C775.793,763.167 774.582,750.028 773.113,737.018C770.77,716.272 767.371,695.644 765.085,674.893C763.18,657.591 762.412,640.166 760.815,622.825C758.685,599.696 760.638,576.989 768.043,554.981C770.616,547.333 774.897,540.26 778.6,532.621Z" style="fill:rgb(196,196,196);fill-rule:nonzero;"/>
        </g>
        <g transform="matrix(1,0,0,1,20,16)">
            <path d="M382.023,755.063C401.976,744.719 421.16,733.849 437.906,719.187C459.361,700.402 471.055,676.597 474.667,647.972C472.599,647.972 470.826,647.972 469.052,647.972C435.719,647.972 402.387,647.936 369.054,648.026C365.637,648.035 363.971,647.491 363.977,643.426C364.078,569.595 364.031,495.763 364.024,421.931C364.024,421.442 364.131,420.953 364.253,419.91L608.845,419.91C608.913,421.129 609.077,422.707 609.077,424.286C609.061,488.951 609.51,553.621 608.835,618.28C608.377,662.146 600.577,704.673 579.852,744.018C564.155,773.816 540.96,796.954 514.296,816.871C485.574,838.326 453.959,854.693 421.294,869.182C418.956,870.219 417.849,870.017 416.615,867.684C398.5,833.458 380.301,799.278 361.992,764.842C368.695,761.544 375.179,758.354 382.023,755.063M419.309,847.617C420.67,850.073 422.031,852.528 423.438,855.068C424.311,854.782 424.951,854.636 425.537,854.371C450.312,843.182 474.226,830.42 496.652,815.001C520.266,798.763 541.783,780.257 558.306,756.548C585.719,717.216 595.047,672.313 596.824,625.62C598.103,592.017 597.17,558.331 597.203,524.682C597.204,522.937 597.016,521.192 596.91,519.341C592.515,519.341 588.709,519.341 583.988,519.205L376.325,519.205L376.325,636.118L487.565,636.118C487.022,641.847 486.703,647.112 485.998,652.324C481.89,682.696 468.566,708.212 445.407,728.407C426.702,744.718 405.223,756.697 383.206,767.802C381.65,768.587 380.13,769.444 378.364,770.39C392.151,796.243 405.668,821.59 419.309,847.617M389.51,507.835L596.872,507.835L596.872,431.63L376.31,431.63L376.31,507.835C380.582,507.835 384.549,507.835 389.51,507.835Z" style="fill:rgb(4,4,4);fill-rule:nonzero;"/>
        </g>
        <g transform="matrix(1,0,0,1,20,16)">
            <path d="M373.526,162.534C368.294,152.553 363.061,142.572 357.341,131.661C367.838,128.333 377.812,124.858 387.963,122.009C418.703,113.38 449.686,113.749 480.962,119.178C492.387,121.162 504.183,120.938 515.787,121.98C541.402,124.278 566.54,129.174 590.684,138.068C617.995,148.129 635.678,173.935 635.372,203.992C635.155,225.286 633.751,246.597 632.112,267.841C629.51,301.555 622.225,334.438 613.021,366.914C609.921,377.853 601.711,384.005 590.377,384.006C523.048,384.009 455.718,384.01 388.389,384.005C374.87,384.004 365.023,374.033 365.017,360.357C365.011,344.046 365.51,327.715 364.872,311.428C364.268,296.013 362.45,280.646 361.212,265.254C359.16,239.758 352.789,215.128 346.075,190.589C343.314,180.5 340.095,170.517 336.603,160.656C335.304,156.986 336.374,155.601 339.462,154.218C348.096,150.354 355.732,153.385 363.159,157.5C366.197,159.183 368.927,161.42 372.292,163.781C373.12,164.315 373.453,164.472 373.786,164.629C373.699,163.931 373.613,163.233 373.526,162.534M608.93,336.097C608.964,335.766 608.975,335.432 609.034,335.106C612.644,314.941 616.257,294.777 619.874,274.613C621.216,267.125 615.037,259.885 607.327,261.044C605.204,261.916 603.081,262.788 600.271,263.848C593.827,267.59 589.18,273.235 587.134,280.079C583.798,291.235 581.644,302.743 578.979,314.1C577.353,321.026 579.409,328.861 573.014,334.972C570.769,334.847 568.525,334.721 565.868,334.03C564.921,331.774 563.42,329.588 563.124,327.25C561.89,317.532 561.173,307.749 559.962,298.027C559.123,291.298 557.786,284.63 556.488,276.839C552.991,280.547 550.924,283.521 548.138,285.467C545.51,287.303 542.125,288.056 538.305,289.355C536.248,288.496 534.191,287.638 531.817,286.178C531.068,285.374 530.319,284.569 529.457,283.644C526.536,289.404 521.854,292.097 515.166,292.964C513.184,292.888 511.201,292.813 508.665,292.256C505.934,291.138 502.978,290.379 500.514,288.835C492.509,283.82 490.837,275.646 489.938,267.014C489.201,259.941 490.169,252.267 483.826,246.096C481.853,245.109 479.88,244.121 477.232,242.722C470.571,240.357 463.954,240.45 457.339,242.965C451.204,245.298 445.037,247.548 438.129,249.739C436.439,250.136 434.749,250.533 432.169,250.916C427.452,251.307 422.736,251.699 417.158,251.918C415.405,252.001 413.652,252.084 411.014,252.009C405.676,251.584 400.338,251.159 394.449,250.234C392.692,250.041 390.935,249.848 388.468,249.238C378.913,246.432 371.647,252.956 373.084,264.63C374.986,280.084 376.262,295.658 376.858,311.218C377.486,327.631 376.958,344.087 377.017,360.525C377.044,367.852 381.552,372.073 389.747,372.232C391.491,372.155 393.235,372.077 395.911,372.107C401.251,372.047 406.591,371.987 412.758,372.238C414.501,372.157 416.244,372.075 418.916,372.107C423.624,372.075 428.333,372.044 433.864,372.258C435.57,372.17 437.276,372.083 439.917,372.105C452.588,372.045 465.258,371.986 478.757,372.238C480.501,372.157 482.245,372.076 484.922,372.108C492.958,372.074 500.995,372.04 509.871,372.26C511.907,372.174 513.943,372.088 516.909,372.111C521.912,372.047 526.916,371.983 532.762,372.24C534.838,372.159 536.913,372.077 539.921,372.107C548.592,372.052 557.263,371.997 566.791,372.26C569.201,372.165 571.611,372.071 574.948,372.105C580.21,372.108 585.474,372.179 590.735,372.093C596.039,372.007 599.761,369.629 601.781,363.755C604.087,354.798 606.393,345.842 608.93,336.097M477.837,230.375C493.21,234.962 499.538,242.82 501.084,258.932C501.56,263.883 502.077,268.88 503.217,273.704C504.312,278.336 508.954,281.013 513.894,281.1C518.73,281.185 519.243,277.382 520.471,274.227C521.25,272.224 521.595,270.049 522.412,268.065C523.733,264.855 525.558,262.646 529.734,262.595C533.756,262.547 535.36,264.857 536.679,267.687C537.974,270.467 538.789,273.469 539.773,276.253C542.638,273.585 545.012,270.991 547.777,268.919C550.084,267.189 552.722,265.284 555.437,264.846C560.903,263.962 564.448,266.593 566.87,272.993C568.692,277.81 569.809,282.895 570.997,287.02C574.353,280.148 577.064,272.315 581.602,265.744C593.213,248.931 608.851,245.31 622.675,252.88C623.121,235.972 623.85,219.506 623.922,203.038C624.029,178.285 608.209,156.072 584.809,148.134C559.974,139.709 534.392,134.762 508.22,132.911C498.098,132.195 487.849,132.194 477.886,130.513C453.368,126.377 428.92,124.947 404.445,130.114C394.18,132.282 384.079,135.226 373.285,137.975C387.631,163.69 402.404,187.841 410.145,215.24C409.451,215.83 408.757,216.421 408.062,217.012C395.728,203.96 383.603,190.701 370.962,177.953C365.434,172.379 359.155,167.374 351.242,164.821C357.749,190.343 364.16,215.489 370.235,239.312C376.295,238.595 382.537,237.337 388.788,237.285C393.52,237.247 398.234,239.063 403.007,239.506C417.694,240.867 432.47,240.844 446.167,234.829C456.245,230.404 466.144,227.84 477.837,230.375Z" style="fill:rgb(4,3,4);fill-rule:nonzero;"/>
        </g>
        <g transform="matrix(1,0,0,1,20,16)">
            <path d="M419.185,846.937C405.668,821.59 392.151,796.243 378.364,770.39C380.13,769.444 381.65,768.587 383.206,767.802C405.223,756.697 426.702,744.718 445.407,728.407C468.566,708.212 481.89,682.696 485.998,652.324C486.703,647.112 487.022,641.847 487.565,636.118L376.325,636.118L376.325,519.205C445.49,519.205 514.739,519.205 584.477,519.717C584.656,557.656 584.659,595.088 583.908,632.506C583.502,652.753 579.437,672.541 574.246,692.149C563.463,732.889 541.463,766.309 509.241,793.077C485.92,812.451 460.937,829.355 432.984,841.493C428.451,843.461 423.788,845.13 419.185,846.937Z" style="fill:rgb(187,153,114);fill-rule:nonzero;"/>
        </g>
        <g transform="matrix(1,0,0,1,20,16)">
            <path d="M389.013,507.835C384.549,507.835 380.582,507.835 376.31,507.835L376.31,431.63L596.872,431.63L596.872,507.835L389.013,507.835M400.51,484.98C409.888,493.314 421.557,494.62 431.188,488.415C440.265,482.567 444.476,471.228 441.391,460.941C438.447,451.123 430.461,444.563 419.949,443.475C411.455,442.596 401.035,447.446 396.408,456.191C391.573,465.331 392.802,475.583 400.51,484.98M576.239,453.361C567.817,441.762 552.253,441.229 542.994,447.452C532.79,454.31 529.125,467.853 534.691,478.749C541.093,491.281 555.909,495.909 568.336,489.258C580.925,482.52 584.525,467.306 576.239,453.361M475.463,489.242C476.509,489.727 477.537,490.259 478.605,490.689C487.484,494.262 498.62,491.68 505.151,484.554C512.061,477.013 513.699,466.094 509.25,457.228C504.598,447.956 494.945,442.419 485.274,443.474C474.318,444.669 465.857,451.957 463.381,462.333C460.952,472.512 465.169,482.331 475.463,489.242Z" style="fill:rgb(192,192,192);fill-rule:nonzero;"/>
        </g>
        <g transform="matrix(1,0,0,1,20,16)">
            <path d="M419.247,847.277C423.788,845.13 428.451,843.461 432.984,841.493C460.937,829.355 485.92,812.451 509.241,793.077C541.463,766.309 563.463,732.889 574.246,692.149C579.437,672.541 583.502,652.753 583.908,632.506C584.659,595.088 584.656,557.656 584.935,519.785C588.709,519.341 592.515,519.341 596.91,519.341C597.016,521.192 597.204,522.937 597.203,524.682C597.17,558.331 598.103,592.017 596.824,625.62C595.047,672.313 585.719,717.216 558.306,756.548C541.783,780.257 520.266,798.763 496.652,815.001C474.226,830.42 450.312,843.182 425.537,854.371C424.951,854.636 424.311,854.782 423.438,855.068C422.031,852.528 420.67,850.073 419.247,847.277Z" style="fill:rgb(144,117,89);fill-rule:nonzero;"/>
        </g>
        <g transform="matrix(1,0,0,1,20,16)">
            <path d="M477.431,230.264C466.144,227.84 456.245,230.404 446.167,234.829C432.47,240.844 417.694,240.867 403.007,239.506C398.234,239.063 393.52,237.247 388.788,237.285C382.537,237.337 376.295,238.595 370.235,239.312C364.16,215.489 357.749,190.343 351.242,164.821C359.155,167.374 365.434,172.379 370.962,177.953C383.603,190.701 395.728,203.96 408.062,217.012C408.757,216.421 409.451,215.83 410.145,215.24C402.404,187.841 387.631,163.69 373.285,137.975C384.079,135.226 394.18,132.282 404.445,130.114C428.92,124.947 453.368,126.377 477.886,130.513C487.849,132.194 498.098,132.195 508.22,132.911C534.392,134.762 559.974,139.709 584.809,148.134C608.209,156.072 624.029,178.285 623.922,203.038C623.85,219.506 623.121,235.972 622.675,252.88C608.851,245.31 593.213,248.931 581.602,265.744C577.064,272.315 574.353,280.148 570.997,287.02C569.809,282.895 568.692,277.81 566.87,272.993C564.448,266.593 560.903,263.962 555.437,264.846C552.722,265.284 550.084,267.189 547.777,268.919C545.012,270.991 542.638,273.585 539.773,276.253C538.789,273.469 537.974,270.467 536.679,267.687C535.36,264.857 533.756,262.547 529.734,262.595C525.558,262.646 523.733,264.855 522.412,268.065C521.595,270.049 521.25,272.224 520.471,274.227C519.243,277.382 518.73,281.185 513.894,281.1C508.954,281.013 504.312,278.336 503.217,273.704C502.077,268.88 501.56,263.883 501.084,258.932C499.538,242.82 493.21,234.962 477.431,230.264Z" style="fill:rgb(119,66,250);fill-rule:nonzero;"/>
        </g>
        <g transform="matrix(1,0,0,1,20,16)">
            <path d="M438.885,249.835C445.037,247.548 451.204,245.298 457.339,242.965C463.954,240.45 470.571,240.357 477.549,243.388C477.887,286.677 477.908,329.302 477.929,371.926C465.258,371.986 452.588,372.045 439.406,371.584C438.892,330.653 438.888,290.244 438.885,249.835Z" style="fill:rgb(254,242,201);fill-rule:nonzero;"/>
        </g>
        <g transform="matrix(1,0,0,1,20,16)">
            <path d="M484.033,246.726C490.169,252.267 489.201,259.941 489.938,267.014C490.837,275.646 492.509,283.82 500.514,288.835C502.978,290.379 505.934,291.138 508.939,292.982C509.152,319.808 509.092,345.907 509.032,372.007C500.995,372.04 492.958,372.074 484.419,371.584C483.955,329.615 483.994,288.17 484.033,246.726Z" style="fill:rgb(254,241,200);fill-rule:nonzero;"/>
        </g>
        <g transform="matrix(1,0,0,1,20,16)">
            <path d="M573.859,334.817C579.409,328.861 577.353,321.026 578.979,314.1C581.644,302.743 583.798,291.235 587.134,280.079C589.18,273.235 593.827,267.59 600.614,264.245C600.957,291.731 600.939,318.82 600.972,345.909C600.98,352.048 601.166,358.186 601.27,364.324C599.761,369.629 596.039,372.007 590.735,372.093C585.474,372.179 580.21,372.108 574.473,371.574C573.952,358.967 573.906,346.892 573.859,334.817Z" style="fill:rgb(254,242,201);fill-rule:nonzero;"/>
        </g>
        <g transform="matrix(1,0,0,1,20,16)">
            <path d="M539.074,289.286C542.125,288.056 545.51,287.303 548.138,285.467C550.924,283.521 552.991,280.547 556.488,276.839C557.786,284.63 559.123,291.298 559.962,298.027C561.173,307.749 561.89,317.532 563.124,327.25C563.42,329.588 564.921,331.774 565.941,334.796C565.987,347.688 565.961,359.815 565.935,371.941C557.263,371.997 548.592,372.052 539.417,371.585C538.966,343.803 539.02,316.545 539.074,289.286Z" style="fill:rgb(254,242,201);fill-rule:nonzero;"/>
        </g>
        <g transform="matrix(1,0,0,1,20,16)">
            <path d="M411.931,371.927C406.591,371.987 401.251,372.047 395.399,371.587C394.925,330.955 394.963,290.845 395,250.734C400.338,251.159 405.676,251.584 411.441,252.546C411.889,292.697 411.91,332.312 411.931,371.927Z" style="fill:rgb(254,241,200);fill-rule:nonzero;"/>
        </g>
        <g transform="matrix(1,0,0,1,20,16)">
            <path d="M433.042,372.012C428.333,372.044 423.624,372.075 418.416,371.584C417.95,331.404 417.984,291.747 418.019,252.091C422.736,251.699 427.452,251.307 432.675,251.393C433.193,261.343 433.227,270.816 433.212,280.288C433.165,310.863 433.1,341.437 433.042,372.012Z" style="fill:rgb(254,241,200);fill-rule:nonzero;"/>
        </g>
        <g transform="matrix(1,0,0,1,20,16)">
            <path d="M388.921,371.917C381.552,372.073 377.044,367.852 377.017,360.525C376.958,344.087 377.486,327.631 376.858,311.218C376.262,295.658 374.986,280.084 373.084,264.63C371.647,252.956 378.913,246.432 388.709,249.93C388.939,291.054 388.93,331.486 388.921,371.917Z" style="fill:rgb(251,238,197);fill-rule:nonzero;"/>
        </g>
        <g transform="matrix(1,0,0,1,20,16)">
            <path d="M516.011,293.09C521.854,292.097 526.536,289.404 529.457,283.644C530.319,284.569 531.068,285.374 531.87,286.954C531.922,315.793 531.921,343.856 531.919,371.919C526.916,371.983 521.912,372.047 516.397,371.589C515.927,345.075 515.969,319.083 516.011,293.09Z" style="fill:rgb(253,240,199);fill-rule:nonzero;"/>
        </g>
        <g transform="matrix(1,0,0,1,20,16)">
            <path d="M483.929,246.411C483.994,288.17 483.955,329.615 483.952,371.527C482.245,372.076 480.501,372.157 478.343,372.082C477.908,329.302 477.887,286.677 477.886,243.593C479.88,244.121 481.853,245.109 483.929,246.411Z" style="fill:rgb(200,161,117);fill-rule:nonzero;"/>
        </g>
        <g transform="matrix(1,0,0,1,20,16)">
            <path d="M389.334,372.075C388.93,331.486 388.939,291.054 389.063,250.139C390.935,249.848 392.692,250.041 394.724,250.484C394.963,290.845 394.925,330.955 394.933,371.533C393.235,372.077 391.491,372.155 389.334,372.075Z" style="fill:rgb(201,162,119);fill-rule:nonzero;"/>
        </g>
        <g transform="matrix(1,0,0,1,20,16)">
            <path d="M433.453,372.135C433.1,341.437 433.165,310.863 433.212,280.288C433.227,270.816 433.193,261.343 433.12,251.401C434.749,250.533 436.439,250.136 438.507,249.787C438.888,290.244 438.892,330.653 438.939,371.529C437.276,372.083 435.57,372.17 433.453,372.135Z" style="fill:rgb(202,164,120);fill-rule:nonzero;"/>
        </g>
        <g transform="matrix(1,0,0,1,20,16)">
            <path d="M417.588,252.004C417.984,291.747 417.95,331.404 417.951,371.527C416.244,372.075 414.501,372.157 412.345,372.083C411.91,332.312 411.889,292.697 411.883,252.625C413.652,252.084 415.405,252.001 417.588,252.004Z" style="fill:rgb(200,161,117);fill-rule:nonzero;"/>
        </g>
        <g transform="matrix(1,0,0,1,20,16)">
            <path d="M601.525,364.039C601.166,358.186 600.98,352.048 600.972,345.909C600.939,318.82 600.957,291.731 600.957,264.151C603.081,262.788 605.204,261.916 607.666,261.556C607.999,285.395 607.978,308.723 608.016,332.051C608.019,333.663 608.462,335.274 608.7,336.885C606.393,345.842 604.087,354.798 601.525,364.039Z" style="fill:rgb(196,155,111);fill-rule:nonzero;"/>
        </g>
        <g transform="matrix(1,0,0,1,20,16)">
            <path d="M532.341,372.079C531.921,343.856 531.922,315.793 532.029,287.254C534.191,287.638 536.248,288.496 538.69,289.321C539.02,316.545 538.966,343.803 538.95,371.529C536.913,372.077 534.838,372.159 532.341,372.079Z" style="fill:rgb(199,160,116);fill-rule:nonzero;"/>
        </g>
        <g transform="matrix(1,0,0,1,20,16)">
            <path d="M608.815,336.491C608.462,335.274 608.019,333.663 608.016,332.051C607.978,308.723 607.999,285.395 608.034,261.609C615.037,259.885 621.216,267.125 619.874,274.613C616.257,294.777 612.644,314.941 609.034,335.106C608.975,335.432 608.964,335.766 608.815,336.491Z" style="fill:rgb(252,240,199);fill-rule:nonzero;"/>
        </g>
        <g transform="matrix(1,0,0,1,20,16)">
            <path d="M515.589,293.027C515.969,319.083 515.927,345.075 515.932,371.535C513.943,372.088 511.907,372.174 509.451,372.133C509.092,345.907 509.152,319.808 509.215,293.223C511.201,292.813 513.184,292.888 515.589,293.027Z" style="fill:rgb(201,162,119);fill-rule:nonzero;"/>
        </g>
        <g transform="matrix(1,0,0,1,20,16)">
            <path d="M566.363,372.101C565.961,359.815 565.987,347.688 566.147,335.079C568.525,334.721 570.769,334.847 573.436,334.895C573.906,346.892 573.952,358.967 574.01,371.51C571.611,372.071 569.201,372.165 566.363,372.101Z" style="fill:rgb(196,155,111);fill-rule:nonzero;"/>
        </g>
        <g transform="matrix(1,0,0,1,20,16)">
            <path d="M373.239,162.818C373.613,163.233 373.699,163.931 373.786,164.629C373.453,164.472 373.12,164.315 372.598,163.927C372.59,163.498 372.772,163.299 373.239,162.818Z" style="fill:white;fill-rule:nonzero;"/>
        </g>
        <g transform="matrix(1,0,0,1,20,16)">
            <path d="M400.264,484.72C392.802,475.583 391.573,465.331 396.408,456.191C401.035,447.446 411.455,442.596 419.949,443.475C430.461,444.563 438.447,451.123 441.391,460.941C444.476,471.228 440.265,482.567 431.188,488.415C421.557,494.62 409.888,493.314 400.264,484.72M419.28,486.12C431.702,484.556 439.164,473.438 435.401,462.102C432.427,453.141 423.618,448.106 414.083,449.915C405.235,451.594 399.073,459.893 399.703,469.284C400.357,479.032 407.741,485.69 419.28,486.12Z" style="fill:rgb(7,7,7);fill-rule:nonzero;"/>
        </g>
        <g transform="matrix(1,0,0,1,20,16)">
            <path d="M576.467,453.645C584.525,467.306 580.925,482.52 568.336,489.258C555.909,495.909 541.093,491.281 534.691,478.749C529.125,467.853 532.79,454.31 542.994,447.452C552.253,441.229 567.817,441.762 576.467,453.645M568.325,481.928C575.805,474.449 577.079,465.591 571.824,457.604C567.243,450.643 558.114,447.686 550.245,450.636C542.96,453.368 538.923,458.816 538.222,466.369C537.532,473.802 540.736,479.814 547.135,483.582C554.094,487.68 561.125,487.142 568.325,481.928Z" style="fill:rgb(7,7,7);fill-rule:nonzero;"/>
        </g>
        <g transform="matrix(1,0,0,1,20,16)">
            <path d="M475.129,489.074C465.169,482.331 460.952,472.512 463.381,462.333C465.857,451.957 474.318,444.669 485.274,443.474C494.945,442.419 504.598,447.956 509.25,457.228C513.699,466.094 512.061,477.013 505.151,484.554C498.62,491.68 487.484,494.262 478.605,490.689C477.537,490.259 476.509,489.727 475.129,489.074M504.955,462.831C500.403,451.574 490.339,446.683 480.284,450.841C471.343,454.538 466.787,464.338 469.774,473.448C472.857,482.852 482.505,488.166 491.96,485.668C501.539,483.137 507.01,473.953 504.955,462.831Z" style="fill:rgb(7,7,7);fill-rule:nonzero;"/>
        </g>
        <g transform="matrix(1,0,0,1,20,16)">
            <path d="M418.847,486.137C407.741,485.69 400.357,479.032 399.703,469.284C399.073,459.893 405.235,451.594 414.083,449.915C423.618,448.106 432.427,453.141 435.401,462.102C439.164,473.438 431.702,484.556 418.847,486.137Z" style="fill:rgb(151,151,151);fill-rule:nonzero;"/>
        </g>
        <g transform="matrix(1,0,0,1,20,16)">
            <path d="M568.035,482.161C561.125,487.142 554.094,487.68 547.135,483.582C540.736,479.814 537.532,473.802 538.222,466.369C538.923,458.816 542.96,453.368 550.245,450.636C558.114,447.686 567.243,450.643 571.824,457.604C577.079,465.591 575.805,474.449 568.035,482.161Z" style="fill:rgb(151,151,151);fill-rule:nonzero;"/>
        </g>
        <g transform="matrix(1,0,0,1,20,16)">
            <path d="M505.029,463.219C507.01,473.953 501.539,483.137 491.96,485.668C482.505,488.166 472.857,482.852 469.774,473.448C466.787,464.338 471.343,454.538 480.284,450.841C490.339,446.683 500.403,451.574 505.029,463.219Z" style="fill:rgb(151,151,151);fill-rule:nonzero;"/>
        </g>
    </g>
</svg>
